<svg width="662" height="129" viewBox="0 0 662 129" fill="none" xmlns="http://www.w3.org/2000/svg">
<g clip-path="url(#clip0_451_1255)">
<path d="M0.302734 55.8581C1.20602 52.5085 2.4923 47.8937 4.16156 42.0139L8.29499 28.1698H16.0488L27.7409 45.3348L27.9432 45.1767C27.4374 43.4372 27.4518 41.6833 27.9794 39.915L31.3179 28.1626H40.3074C39.5631 30.9084 38.2624 35.5231 36.4124 42.0067L32.3151 55.8509H24.5613L12.8259 38.5637L12.6235 38.7218C13.18 40.4398 13.2233 42.1361 12.7464 43.8253L9.24886 55.8509H0.302734V55.8581Z" fill="white"/>
<path d="M33.2329 55.8582L57.8095 28.1699H65.6066L74.2348 55.8582H63.894L62.7811 51.7467H47.7505L44.2891 55.8582H33.2329ZM59.0018 37.9816L52.0429 46.0897L52.1657 46.1688C52.7511 45.565 53.293 45.1552 53.7989 44.9396C54.3047 44.7312 54.8467 44.6233 55.432 44.6233H61.3937L59.486 37.9744H59.009L59.0018 37.9816Z" fill="white"/>
<path d="M78.491 55.8581C79.3943 52.3503 80.4421 48.5119 81.6345 44.3429L72.4065 28.1626H82.6244L87.8346 37.6939L87.9936 37.5789C88.2609 36.6804 88.8679 35.7747 89.8218 34.8475L97.7779 28.1626H109.586L90.7757 44.2997L87.2782 55.8509H78.491V55.8581Z" fill="white"/>
<path d="M102.75 55.8582C103.653 52.5086 104.939 47.8939 106.608 42.0141L110.742 28.1699H138.621L136.634 35.092C133.266 35.1711 129.089 35.207 124.103 35.207H117.657L115.909 41.2593H116.068C116.573 40.4974 117.072 39.8936 117.578 39.4623C118.084 39.031 118.582 38.7291 119.088 38.571C119.594 38.4129 120.172 38.3338 120.837 38.3338H123.142C127.673 38.3338 131.496 38.3626 134.596 38.4129L132.688 44.9827C129.559 45.0331 125.729 45.0618 121.198 45.0618H114.796L113.842 48.3827H120.447C125.433 48.3827 129.581 48.4186 132.898 48.4977L130.788 55.8582H102.75Z" fill="white"/>
<path d="M152.127 55.8582C153.89 49.1015 156.484 39.793 159.909 27.9255L168.169 0H185.982C184.486 5.53479 181.863 14.8433 178.12 27.9327L169.86 55.8654H152.127V55.8582Z" fill="white"/>
<path d="M177.318 55.8582C179.139 49.1015 181.733 39.793 185.1 27.9255L193.439 0H209.084L232.671 34.632L233.075 34.3157C232.057 30.8079 232.085 27.2642 233.155 23.699L239.89 0H258.021C256.525 5.53479 253.902 14.8433 250.158 27.9327L241.899 55.8654H226.254L202.588 20.9962L202.183 21.3125C203.303 24.77 203.383 28.2058 202.422 31.6058L195.362 55.8654H177.31L177.318 55.8582Z" fill="white"/>
<path d="M248.952 55.8582C250.715 49.1518 253.338 39.8433 256.814 27.9255L265.081 0H302.867C306.986 0 310.447 0.251581 313.258 0.754744C316.069 1.25791 318.483 2.14922 320.521 3.42869C322.551 4.70816 323.997 6.41173 324.856 8.5322C325.709 10.6599 326.056 13.3194 325.897 16.5109C325.738 19.7024 325.015 23.5049 323.729 27.9255C322.125 33.4603 320.398 37.9816 318.555 41.4893C316.712 44.9971 314.422 47.8507 311.697 50.0287C308.973 52.2139 305.866 53.7306 302.39 54.5787C298.914 55.4269 294.636 55.8582 289.556 55.8582H248.966H248.952ZM269.575 47.0026H269.973C271.418 44.5586 272.928 42.891 274.504 42.0141C276.079 41.1371 277.936 40.6986 280.075 40.6986H296.522C298.343 40.6986 299.76 40.2746 300.771 39.4192C301.79 38.571 302.534 37.2915 303.019 35.588L307.434 20.184C307.918 18.4804 307.904 17.2225 307.391 16.3959C306.885 15.5693 305.721 15.1596 303.9 15.1596H278.789L269.561 47.0026H269.575Z" fill="white"/>
<path d="M322.443 55.8582C324.206 49.1015 326.8 39.793 330.225 27.9255L338.485 0H356.298C354.802 5.53479 352.179 14.8433 348.436 27.9327L340.176 55.8654H322.443V55.8582Z" fill="white"/>
<path d="M342.416 55.8582L391.996 0H407.72L425.128 55.8582H404.266L402.019 47.556H371.697L364.717 55.8582H342.416ZM394.402 19.7887L380.361 36.1486L380.6 36.3068C381.778 35.0848 382.876 34.2582 383.888 33.8341C384.907 33.41 385.998 33.1943 387.176 33.1943H399.208L395.356 19.7887H394.395H394.402Z" fill="white"/>
<path d="M442.695 55.8579C444.458 49.209 447.082 39.9005 450.557 27.9252L458.817 -0.00746041H476.868L469.165 26.883H469.483C470.928 24.2737 472.345 22.4911 473.732 21.5351C475.12 20.5791 476.832 20.0975 478.863 20.0975H481.349L502.688 -0.0146484H524.432L495.151 26.7967C499.429 33.8194 504.805 43.5017 511.273 55.8435H489.854L478.465 35.4942H466.593L460.739 55.8435H442.688L442.695 55.8579Z" fill="white"/>
<path d="M509.119 55.8582L558.699 0H574.423L591.831 55.8582H570.969L568.721 47.556H538.4L531.419 55.8582H509.119ZM561.105 19.7887L547.064 36.1486L547.303 36.3068C548.481 35.0848 549.579 34.2582 550.591 33.8341C551.61 33.41 552.701 33.1943 553.879 33.1943H565.91L562.059 19.7887H561.098H561.105Z" fill="white"/>
<path d="M27.6687 100.618L52.2453 72.9292H60.0424L68.6706 100.618H58.3298L57.2169 96.5059H42.1863L38.7249 100.618H27.6687ZM53.4448 82.7409L46.4859 90.849L46.6088 90.928C47.1941 90.3242 47.7361 89.9145 48.2419 89.6989C48.7477 89.4904 49.2897 89.3826 49.875 89.3826H55.8367L53.929 82.7337H53.452L53.4448 82.7409Z" fill="white"/>
<path d="M69.5883 100.618C70.4915 97.2396 71.7778 92.6249 73.4471 86.7738L77.5805 72.9297H107.808C107.62 73.6916 106.804 76.8184 105.344 82.3029C104.578 85.2069 103.082 87.622 100.871 89.5628C98.6596 91.5036 96.1015 92.4739 93.2182 92.4739H80.8902L78.5416 100.625H69.5955L69.5883 100.618ZM82.3137 87.5645H82.4727C83.1375 86.6445 83.8168 85.9832 84.5177 85.5878C85.2187 85.1925 86.0208 84.9912 86.9241 84.9912H93.1676C94.6779 84.9912 95.6607 84.2293 96.1087 82.6982L96.7446 80.3621H84.3732L82.3065 87.5645H82.3137Z" fill="white"/>
<path d="M103.191 100.618C104.094 97.2682 105.38 92.6535 107.049 86.7737L111.183 72.9296H118.937L130.629 90.0946L130.831 89.9364C130.325 88.1969 130.34 86.4431 130.867 84.6748L134.206 72.9224H143.195C142.451 75.6682 141.15 80.2829 139.3 86.7665L135.203 100.611H127.449L115.714 83.3234L115.511 83.4816C116.068 85.1995 116.111 86.8959 115.634 88.5851L112.137 100.611H103.191V100.618Z" fill="white"/>
<path d="M136.121 100.618L160.697 72.9297H168.494L177.122 100.618H166.782L165.669 96.5064H150.638L147.177 100.618H136.121ZM161.889 82.7414L154.931 90.8495L155.046 90.9285C155.632 90.3247 156.174 89.915 156.679 89.6994C157.185 89.4909 157.727 89.3831 158.312 89.3831H164.274L162.366 82.7342H161.889V82.7414Z" fill="white"/>
<path d="M205.291 128.781C206.786 122.448 209.193 113.456 212.51 101.811L216.679 88.0819C207.372 88.0819 199.885 88.0029 194.22 87.8447L198.469 72.9224H261.684L257.349 87.8447C251.091 88.0029 243.416 88.0819 234.326 88.0819H229.513L229.354 88.3982C232.613 89.6202 233.769 91.9347 232.801 95.3418L230.958 101.804C227.533 113.671 224.78 122.656 222.699 128.773H205.291V128.781Z" fill="white"/>
<path d="M251.018 128.781C252.839 122.024 255.434 112.716 258.801 100.848L267.147 72.9155H285.199L277.654 99.1662H277.972C279.418 96.557 280.942 94.7672 282.547 93.7824C284.151 92.7976 286.073 92.3088 288.32 92.3088H309.501L315.036 72.9155H333.167C331.671 78.4503 329.048 87.7588 325.305 100.848L317.045 128.781H298.994L305.093 107.476H275.248L269.07 128.781H251.018Z" fill="white"/>
<path d="M318.888 128.781L368.467 72.9224H384.191L401.6 128.781H380.737L378.49 120.478H348.168L341.188 128.781H318.888ZM370.873 92.711L356.833 109.071L357.071 109.229C358.249 108.007 359.347 107.181 360.359 106.756C361.378 106.332 362.469 106.117 363.647 106.117H375.679L371.827 92.711H370.866H370.873Z" fill="white"/>
<path d="M403.442 128.781C405.263 122.024 407.858 112.716 411.225 100.848L419.571 72.9155H435.216L458.803 107.547L459.207 107.231C458.188 103.723 458.217 100.18 459.287 96.6145L466.029 72.9155H484.16C482.664 78.4503 480.041 87.7588 476.298 100.848L468.038 128.781H452.393L428.727 93.9118L428.322 94.228C429.442 97.6855 429.529 101.121 428.561 104.521L421.501 128.781H403.449H403.442Z" fill="white"/>
<path d="M475.084 128.781C476.847 122.074 479.47 112.766 482.946 100.848L491.205 72.9155H528.992C533.111 72.9155 536.572 73.1671 539.383 73.6703C542.194 74.1734 544.608 75.0647 546.645 76.3442C548.676 77.6237 550.121 79.3273 550.981 81.4477C551.834 83.5754 552.188 86.235 552.022 89.4264C551.863 92.6179 551.14 96.4204 549.854 100.841C548.25 106.376 546.523 110.897 544.68 114.405C542.837 117.913 540.546 120.766 537.822 122.944C535.098 125.129 531.991 126.639 528.515 127.494C525.039 128.35 520.761 128.774 515.681 128.774H475.091L475.084 128.781ZM495.7 119.925H496.098C497.543 117.481 499.053 115.814 500.628 114.937C502.204 114.06 504.061 113.621 506.2 113.621H522.647C524.468 113.621 525.884 113.197 526.896 112.342C527.915 111.494 528.659 110.214 529.143 108.511L533.559 93.1067C534.043 91.4032 534.028 90.1452 533.515 89.3186C533.009 88.492 531.846 88.0823 530.025 88.0823H504.914L495.686 119.925H495.7Z" fill="white"/>
<path d="M540.951 128.781L590.53 72.9224H606.255L623.663 128.781H602.801L600.553 120.478H570.232L563.251 128.781H540.951ZM592.937 92.711L578.896 109.071L579.135 109.229C580.312 108.007 581.411 107.181 582.423 106.756C583.441 106.332 584.533 106.117 585.71 106.117H597.742L593.891 92.711H592.93H592.937Z" fill="white"/>
<path d="M628.555 128.781C628.823 126.495 629.328 124.101 630.08 121.6C630.832 119.206 631.735 116.863 632.804 114.577H649.013C648.695 116.655 648.153 118.991 647.409 121.6C646.606 124.051 645.696 126.445 644.684 128.781H628.562H628.555ZM634.972 109.711C635.348 104.816 636.685 98.3538 638.983 90.3176C640.854 83.9849 642.863 77.4941 645.002 70.8452H662.013C659.982 78.9318 658.241 85.4226 656.795 90.3176C654.498 98.3538 652.113 104.816 649.656 109.711H634.972Z" fill="white"/>
</g>
<defs>
<clipPath id="clip0_451_1255">
<rect width="661.703" height="128.781" fill="white" transform="translate(0.302734)"/>
</clipPath>
</defs>
</svg>
